# Created by Kenney (www.kenney.nl)

mtllib Untitled-1.mtl

g mergedBlocks

v 0.375 3.125 1.5
v -0.375 3.125 1.5
v 0.375 3.875 1.5
v -0.375 3.875 1.5
v 0.5 3.875 0.625
v 0.5 3.125 0.625
v 0.5 3.875 1.375
v 0.5 3.125 1.375
v 0.375 4 0.625
v 0.375 4 1.375
v -0.375 4 0.625
v -0.375 4 1.375
v -0.375 3.125 0.5
v 0.375 3.125 0.5
v -0.375 3.875 0.5
v 0.375 3.875 0.5
v 0.375 3 1.375
v 0.375 3 0.625
v -0.375 3 1.375
v -0.375 3 0.625
v -0.5 3.125 0.625
v -0.5 3.875 0.625
v -0.5 3.125 1.375
v -0.5 3.875 1.375
v 0.5625 4 1.5
v 0.5625 4 0.5
v 0.5 4 1.5625
v 0.5 4 0.4375
v 0.2625 4 1.2625
v -0.5 4 1.5625
v -0.2625 4 1.2625
v -0.2625 4 0.7375
v 0.2625 4 0.7375
v -0.5 4 0.4375
v -0.5625 4 1.5
v -0.5625 4 0.5
v 0.5625 4.1 1.5
v 0.5 4.1 1.5625
v 0.5625 4.1 0.5
v 0.5 4.1 0.4375
v 0.2625 4.1 0.7375
v -0.5 4.1 0.4375
v -0.2625 4.1 0.7375
v -0.2625 4.1 1.2625
v 0.2625 4.1 1.2625
v -0.5 4.1 1.5625
v -0.5625 4.1 0.5
v -0.5625 4.1 1.5
v 0.5625 2.9 1.5
v 0.5625 2.9 0.5
v 0.5 2.9 1.5625
v 0.5 2.9 0.4375
v 0.2625 2.9 1.2625
v -0.5 2.9 1.5625
v -0.2625 2.9 1.2625
v -0.2625 2.9 0.7375
v 0.2625 2.9 0.7375
v -0.5 2.9 0.4375
v -0.5625 2.9 1.5
v -0.5625 2.9 0.5
v 0.5625 3 1.5
v 0.5 3 1.5625
v 0.5625 3 0.5
v 0.5 3 0.4375
v 0.2625 3 0.7375
v -0.5 3 0.4375
v -0.2625 3 0.7375
v -0.2625 3 1.2625
v 0.2625 3 1.2625
v -0.5 3 1.5625
v -0.5625 3 0.5
v -0.5625 3 1.5
v 0.5 2.9375 1.5
v 0.5 4.0625 1.5
v 0.2625 3.2375 1.5
v -0.5 2.9375 1.5
v -0.2625 3.2375 1.5
v -0.2625 3.7625 1.5
v 0.2625 3.7625 1.5
v -0.5 4.0625 1.5
v 0.5625 3 1.6
v 0.5 2.9375 1.6
v 0.5625 4 1.6
v 0.5 4.0625 1.6
v 0.2625 3.7625 1.6
v -0.5 4.0625 1.6
v -0.2625 3.7625 1.6
v -0.2625 3.2375 1.6
v 0.2625 3.2375 1.6
v -0.5 2.9375 1.6
v -0.5625 4 1.6
v -0.5625 3 1.6
v 0.5625 3 0.3999999
v 0.5625 4 0.4000001
v 0.5 2.9375 0.3999999
v 0.5 4.0625 0.4000001
v 0.2625 3.2375 0.4
v -0.5 2.9375 0.3999999
v -0.2625 3.2375 0.4
v -0.2625 3.7625 0.4
v 0.2625 3.7625 0.4
v -0.5 4.0625 0.4000001
v -0.5625 3 0.3999999
v -0.5625 4 0.4000001
v 0.5625 3 0.5
v 0.5 2.9375 0.4999999
v 0.5625 4 0.5000001
v 0.5 4.0625 0.5000001
v 0.2625 3.7625 0.5000001
v -0.5 4.0625 0.5000001
v -0.2625 3.7625 0.5000001
v -0.2625 3.2375 0.5
v 0.2625 3.2375 0.5
v -0.5 2.9375 0.4999999
v -0.5625 4 0.5000001
v -0.5625 3 0.5
v 0.5 2.9375 0.5
v 0.5 4.0625 0.5
v 0.5 3.2375 0.7375
v 0.5 2.9375 1.5
v 0.5 3.2375 1.2625
v 0.5 3.7625 1.2625
v 0.5 3.7625 0.7375
v 0.5 4.0625 1.5
v 0.6 3 0.4375
v 0.6 2.9375 0.5
v 0.6 4 0.4375
v 0.6 4.0625 0.5
v 0.6 3.7625 0.7375
v 0.6 4.0625 1.5
v 0.6 3.7625 1.2625
v 0.6 3.2375 1.2625
v 0.6 3.2375 0.7375
v 0.6 2.9375 1.5
v 0.6 4 1.5625
v 0.6 3 1.5625
v -0.6 3 0.4375
v -0.6 4 0.4375
v -0.6 2.9375 0.5
v -0.6 4.0625 0.5
v -0.6 3.2375 0.7375
v -0.6 2.9375 1.5
v -0.6 3.2375 1.2625
v -0.6 3.7625 1.2625
v -0.6 3.7625 0.7375
v -0.6 4.0625 1.5
v -0.6 3 1.5625
v -0.6 4 1.5625
v -0.5 2.9375 0.5
v -0.5 4.0625 0.5
v -0.5 3.7625 0.7375
v -0.5 4.0625 1.5
v -0.5 3.7625 1.2625
v -0.5 3.2375 1.2625
v -0.5 3.2375 0.7375
v -0.5 2.9375 1.5

vn 0 0 1
vn 1 0 0
vn 0 1 0
vn 0 0 -1
vn 0 -1 0
vn -1 0 0
vn 0.5773503 0.5773503 -0.5773503
vn 0.7071068 0 -0.7071068
vn 0 -0.7071068 -0.7071068
vn 0.5773503 -0.5773503 -0.5773503
vn 0.7071068 -0.7071068 0
vn 0.7071068 0.7071068 0
vn 0.5773503 0.5773503 0.5773503
vn 0.7071068 0 0.7071068
vn 0.5773503 -0.5773503 0.5773503
vn 0 0.7071068 0.7071068
vn -0.5773503 0.5773503 0.5773503
vn -0.7071068 -0.7071068 0
vn 0 -0.7071068 0.7071068
vn -0.7071068 0 0.7071068
vn -0.5773503 -0.5773503 0.5773503
vn -0.5773503 -0.5773503 -0.5773503
vn -0.7071068 0 -0.7071068
vn -0.7071068 0.7071068 0
vn 0 0.7071068 -0.7071068
vn -0.5773503 0.5773503 -0.5773503
vn 0 1.192093E-07 -1
vn 0 -1.192093E-07 1
vn 0 -1 -1.192093E-07
vn 0.7071068 -0.7071068 -8.42937E-08
vn 0.7071068 0.7071068 8.42937E-08
vn 0 1 1.192093E-07
vn -0.7071068 0.7071068 8.42937E-08
vn -0.7071068 -0.7071068 -8.42937E-08

vt 0.375 3.125
vt -0.375 3.125
vt 0.375 3.875
vt -0.375 3.875
vt -0.625 3.875
vt -0.625 3.125
vt -1.375 3.875
vt -1.375 3.125
vt -0.375 0.625
vt -0.375 1.375
vt 0.375 0.625
vt 0.375 1.375
vt -0.375 -1.375
vt -0.375 -0.625
vt 0.375 -1.375
vt 0.375 -0.625
vt 0.625 3.125
vt 0.625 3.875
vt 1.375 3.125
vt 1.375 3.875
vt -0.5 3.875
vt -0.375 4
vt -0.5 3.125
vt -0.375 3
vt 0.375 3
vt -0.5 -1.375
vt -0.5 -0.625
vt -0.5 0.625
vt -0.5 1.375
vt 0.5 3.875
vt 0.375 4
vt 0.5 3.125
vt 0.5 -0.625
vt 0.5 -1.375
vt 0.5 0.625
vt 0.5 1.375
vt -0.5625 -1.5
vt -0.5625 -0.5
vt -0.5 -1.5625
vt -0.5 -0.4375
vt -0.2625 -1.2625
vt 0.5 -1.5625
vt 0.2625 -1.2625
vt 0.2625 -0.7375
vt -0.2625 -0.7375
vt 0.5 -0.4375
vt 0.5625 -1.5
vt 0.5625 -0.5
vt -0.5625 1.5
vt -0.5 1.5625
vt -0.5625 0.5
vt -0.5 0.4375
vt -0.2625 0.7375
vt 0.5 0.4375
vt 0.2625 0.7375
vt 0.2625 1.2625
vt -0.2625 1.2625
vt 0.5 1.5625
vt 0.5625 0.5
vt 0.5625 1.5
vt 0.5 4
vt -0.5 4
vt 0.5 4.1
vt -0.5 4.1
vt 0.5625 4.1
vt 0.5625 4
vt -1.5 4.1
vt -1.5 4
vt -0.5625 4.1
vt -0.5625 4
vt 1.5 4
vt 1.5 4.1
vt -0.7375 4.1
vt -0.7375 4
vt -1.2625 4.1
vt -1.2625 4
vt 0.2625 4
vt -0.2625 4
vt 0.2625 4.1
vt -0.2625 4.1
vt 0.7375 4
vt 0.7375 4.1
vt 1.2625 4
vt 1.2625 4.1
vt 0.5 2.9
vt -0.5 2.9
vt 0.5 3
vt -0.5 3
vt 0.5625 3
vt 0.5625 2.9
vt -1.5 3
vt -1.5 2.9
vt -0.5625 3
vt -0.5625 2.9
vt 1.5 2.9
vt 1.5 3
vt -0.7375 3
vt -0.7375 2.9
vt -1.2625 3
vt -1.2625 2.9
vt 0.2625 2.9
vt -0.2625 2.9
vt 0.2625 3
vt -0.2625 3
vt 0.7375 2.9
vt 0.7375 3
vt 1.2625 2.9
vt 1.2625 3
vt -0.5 2.9375
vt -0.5 4.0625
vt -0.2625 3.2375
vt 0.5 2.9375
vt 0.2625 3.2375
vt 0.2625 3.7625
vt -0.2625 3.7625
vt 0.5 4.0625
vt -0.5 -1.5
vt 0.5 -1.5
vt -0.5 -1.6
vt 0.5 -1.6
vt -0.5625 -1.6
vt -1.6 4
vt -1.6 3
vt -0.5 1.6
vt -0.5 1.5
vt -0.5625 1.6
vt 0.5 1.5
vt 0.5 1.6
vt 0.5625 1.6
vt 1.6 4
vt 1.6 3
vt 0.5625 -1.6
vt -1.6 3.7625
vt -1.5 3.7625
vt -1.6 3.2375
vt -1.5 3.2375
vt 0.2625 1.5
vt -0.2625 1.5
vt 0.2625 1.6
vt -0.2625 1.6
vt 1.5 3.7625
vt 1.6 3.7625
vt 1.5 3.2375
vt 1.6 3.2375
vt -0.2625 -1.5
vt 0.2625 -1.5
vt -0.2625 -1.6
vt 0.2625 -1.6
vt -0.5 -0.3999999
vt 0.5 -0.3999999
vt -0.5 -0.4999999
vt 0.5 -0.4999999
vt -0.5625 -0.5
vt -0.5625 -0.3999999
vt -0.5000001 4
vt -0.4000001 4
vt -0.5 3
vt -0.3999999 3
vt -0.5 0.5000001
vt -0.5 0.4000001
vt -0.5625 0.5000001
vt -0.5625 0.4000001
vt 0.5 0.4000001
vt 0.5 0.5000001
vt 0.5625 0.4000001
vt 0.5625 0.5000001
vt 0.4000001 4
vt 0.5000001 4
vt 0.3999999 3
vt 0.5 3
vt 0.5625 -0.3999999
vt 0.5625 -0.5
vt -0.5000001 3.7625
vt -0.4 3.7625
vt -0.5 3.2375
vt -0.4 3.2375
vt 0.2625 0.4
vt -0.2625 0.4
vt 0.2625 0.5
vt -0.2625 0.5
vt 0.4 3.7625
vt 0.5000001 3.7625
vt 0.4 3.2375
vt 0.5 3.2375
vt -0.2625 -0.4
vt 0.2625 -0.4
vt -0.2625 -0.5000001
vt 0.2625 -0.5000001
vt 0.4375 3
vt 0.4375 4
vt 0.7375 3.2375
vt 1.5 2.9375
vt 1.2625 3.2375
vt 1.2625 3.7625
vt 0.7375 3.7625
vt 1.5 4.0625
vt 1.5625 3
vt 1.5625 4
vt -0.4375 3
vt -0.4375 4
vt -0.7375 3.7625
vt -1.5 4.0625
vt -1.2625 3.7625
vt -1.2625 3.2375
vt -0.7375 3.2375
vt -1.5 2.9375
vt -1.5625 4
vt -1.5625 3
vt -0.5 -0.5
vt -0.5 -1.5
vt -0.6 -0.5
vt -0.6 -1.5
vt -0.6 3
vt -0.6 2.9375
vt -0.6 4
vt -0.6 4.0625
vt -0.5 1.5
vt -0.5 0.5
vt -0.6 1.5
vt -0.6 0.5
vt 0.6 4.0625
vt 0.6 4
vt 0.6 3
vt 0.6 2.9375
vt -0.6 3.7625
vt -0.5 3.7625
vt -0.6 3.2375
vt -0.5 1.2625
vt -0.5 0.7375
vt -0.6 1.2625
vt -0.6 0.7375
vt 0.5 3.7625
vt 0.6 3.7625
vt 0.6 3.2375
vt -0.5 -0.7375
vt -0.5 -1.2625
vt -0.6 -0.7375
vt -0.6 -1.2625
vt 0.6 -0.5
vt 0.6 -1.5
vt 0.5 -0.5
vt 0.5 -1.5
vt 0.6 1.5
vt 0.6 0.5
vt 0.5 1.5
vt 0.5 0.5
vt 0.6 1.2625
vt 0.6 0.7375
vt 0.5 1.2625
vt 0.5 0.7375
vt 0.6 -0.7375
vt 0.6 -1.2625
vt 0.5 -0.7375
vt 0.5 -1.2625

usemtl _defaultMat(Clone)

f 3/3/1 2/2/1 1/1/1
f 2/2/1 3/3/1 4/4/1
f 7/7/2 6/6/2 5/5/2
f 6/6/2 7/7/2 8/8/2
f 11/11/3 10/10/3 9/9/3
f 10/10/3 11/11/3 12/12/3
f 15/3/4 14/2/4 13/1/4
f 14/2/4 15/3/4 16/4/4
f 19/15/5 18/14/5 17/13/5
f 18/14/5 19/15/5 20/16/5
f 23/19/6 22/18/6 21/17/6
f 22/18/6 23/19/6 24/20/6
f 9/22/7 5/21/7 16/4/7
f 16/4/8 6/23/8 14/2/8
f 6/23/8 16/4/8 5/21/8
f 20/25/9 14/2/9 18/24/9
f 14/2/9 20/25/9 13/1/9
f 14/2/10 6/23/10 18/24/10
f 17/13/11 6/27/11 8/26/11
f 6/27/11 17/13/11 18/14/11
f 9/9/12 7/29/12 5/28/12
f 7/29/12 9/9/12 10/10/12
f 10/31/13 3/3/13 7/30/13
f 7/30/14 1/1/14 8/32/14
f 1/1/14 7/30/14 3/3/14
f 1/1/15 17/25/15 8/32/15
f 10/31/16 4/4/16 3/3/16
f 4/4/16 10/31/16 12/22/16
f 4/4/17 12/22/17 24/21/17
f 19/15/18 21/33/18 20/16/18
f 21/33/18 19/15/18 23/34/18
f 1/1/19 19/24/19 17/25/19
f 19/24/19 1/1/19 2/2/19
f 2/2/20 24/21/20 23/23/20
f 24/21/20 2/2/20 4/4/20
f 2/2/21 23/23/21 19/24/21
f 21/32/22 13/1/22 20/25/22
f 21/32/23 15/3/23 13/1/23
f 15/3/23 21/32/23 22/30/23
f 24/36/24 11/11/24 22/35/24
f 11/11/24 24/36/24 12/12/24
f 15/3/25 9/22/25 16/4/25
f 9/22/25 15/3/25 11/31/25
f 11/31/26 15/3/26 22/30/26

usemtl metalGreen(Clone)

f 27/39/5 26/38/5 25/37/5
f 26/38/5 27/39/5 28/40/5
f 28/40/5 27/39/5 29/41/5
f 29/41/5 27/39/5 30/42/5
f 29/41/5 30/42/5 31/43/5
f 31/43/5 30/42/5 32/44/5
f 33/45/5 28/40/5 29/41/5
f 28/40/5 33/45/5 34/46/5
f 34/46/5 33/45/5 32/44/5
f 34/46/5 32/44/5 30/42/5
f 34/46/5 30/42/5 35/47/5
f 34/46/5 35/47/5 36/48/5
f 39/51/3 38/50/3 37/49/3
f 38/50/3 39/51/3 40/52/3
f 38/50/3 40/52/3 41/53/3
f 41/53/3 40/52/3 42/54/3
f 41/53/3 42/54/3 43/55/3
f 43/55/3 42/54/3 44/56/3
f 45/57/3 38/50/3 41/53/3
f 38/50/3 45/57/3 46/58/3
f 46/58/3 45/57/3 44/56/3
f 46/58/3 44/56/3 42/54/3
f 46/58/3 42/54/3 47/59/3
f 46/58/3 47/59/3 48/60/3
f 38/63/1 30/62/1 27/61/1
f 30/62/1 38/63/1 46/64/1
f 38/63/14 25/66/14 37/65/14
f 25/66/14 38/63/14 27/61/14
f 37/67/2 26/62/2 39/64/2
f 26/62/2 37/67/2 25/68/2
f 39/69/8 28/62/8 40/64/8
f 28/62/8 39/69/8 26/70/8
f 42/63/4 28/62/4 34/61/4
f 28/62/4 42/63/4 40/64/4
f 36/66/23 42/63/23 34/61/23
f 42/63/23 36/66/23 47/65/23
f 35/71/6 47/63/6 36/61/6
f 47/63/6 35/71/6 48/72/6
f 46/64/20 35/70/20 30/62/20
f 35/70/20 46/64/20 48/69/20
f 44/75/2 32/74/2 43/73/2
f 32/74/2 44/75/2 31/76/2
f 44/79/4 29/78/4 31/77/4
f 29/78/4 44/79/4 45/80/4
f 29/83/6 41/82/6 33/81/6
f 41/82/6 29/83/6 45/84/6
f 41/79/1 32/78/1 33/77/1
f 32/78/1 41/79/1 43/80/1
f 51/39/5 50/38/5 49/37/5
f 50/38/5 51/39/5 52/40/5
f 52/40/5 51/39/5 53/41/5
f 53/41/5 51/39/5 54/42/5
f 53/41/5 54/42/5 55/43/5
f 55/43/5 54/42/5 56/44/5
f 57/45/5 52/40/5 53/41/5
f 52/40/5 57/45/5 58/46/5
f 58/46/5 57/45/5 56/44/5
f 58/46/5 56/44/5 54/42/5
f 58/46/5 54/42/5 59/47/5
f 58/46/5 59/47/5 60/48/5
f 63/51/3 62/50/3 61/49/3
f 62/50/3 63/51/3 64/52/3
f 62/50/3 64/52/3 65/53/3
f 65/53/3 64/52/3 66/54/3
f 65/53/3 66/54/3 67/55/3
f 67/55/3 66/54/3 68/56/3
f 69/57/3 62/50/3 65/53/3
f 62/50/3 69/57/3 70/58/3
f 70/58/3 69/57/3 68/56/3
f 70/58/3 68/56/3 66/54/3
f 70/58/3 66/54/3 71/59/3
f 70/58/3 71/59/3 72/60/3
f 62/87/1 54/86/1 51/85/1
f 54/86/1 62/87/1 70/88/1
f 62/87/14 49/90/14 61/89/14
f 49/90/14 62/87/14 51/85/14
f 61/91/2 50/86/2 63/88/2
f 50/86/2 61/91/2 49/92/2
f 63/93/8 52/86/8 64/88/8
f 52/86/8 63/93/8 50/94/8
f 66/87/4 52/86/4 58/85/4
f 52/86/4 66/87/4 64/88/4
f 60/90/23 66/87/23 58/85/23
f 66/87/23 60/90/23 71/89/23
f 59/95/6 71/87/6 60/85/6
f 71/87/6 59/95/6 72/96/6
f 70/88/20 59/94/20 54/86/20
f 59/94/20 70/88/20 72/93/20
f 68/99/2 56/98/2 67/97/2
f 56/98/2 68/99/2 55/100/2
f 68/103/4 53/102/4 55/101/4
f 53/102/4 68/103/4 69/104/4
f 53/107/6 65/106/6 57/105/6
f 65/106/6 53/107/6 69/108/6
f 65/103/1 56/102/1 57/101/1
f 56/102/1 65/103/1 67/104/1
f 73/109/27 25/70/27 61/93/27
f 25/70/27 73/109/27 74/110/27
f 74/110/27 73/109/27 75/111/27
f 75/111/27 73/109/27 76/112/27
f 75/111/27 76/112/27 77/113/27
f 77/113/27 76/112/27 78/114/27
f 79/115/27 74/110/27 75/111/27
f 74/110/27 79/115/27 80/116/27
f 80/116/27 79/115/27 78/114/27
f 80/116/27 78/114/27 76/112/27
f 80/116/27 76/112/27 72/89/27
f 80/116/27 72/89/27 35/66/27
f 83/66/28 82/112/28 81/89/28
f 82/112/28 83/66/28 84/116/28
f 82/112/28 84/116/28 85/114/28
f 85/114/28 84/116/28 86/110/28
f 85/114/28 86/110/28 87/115/28
f 87/115/28 86/110/28 88/111/28
f 89/113/28 82/112/28 85/114/28
f 82/112/28 89/113/28 90/109/28
f 90/109/28 89/113/28 88/111/28
f 90/109/28 88/111/28 86/110/28
f 90/109/28 86/110/28 91/70/28
f 90/109/28 91/70/28 92/93/28
f 82/119/29 76/118/29 73/117/29
f 76/118/29 82/119/29 90/120/29
f 82/119/30 61/37/30 81/121/30
f 61/37/30 82/119/30 73/117/30
f 81/123/2 25/68/2 83/122/2
f 25/68/2 81/123/2 61/91/2
f 83/126/31 74/125/31 84/124/31
f 74/125/31 83/126/31 25/49/31
f 86/128/32 74/125/32 80/127/32
f 74/125/32 86/128/32 84/124/32
f 35/60/33 86/128/33 80/127/33
f 86/128/33 35/60/33 91/129/33
f 72/96/6 91/130/6 35/71/6
f 91/130/6 72/96/6 92/131/6
f 90/120/34 72/47/34 76/118/34
f 72/47/34 90/120/34 92/132/34
f 88/135/2 78/134/2 87/133/2
f 78/134/2 88/135/2 77/136/2
f 88/139/32 75/138/32 77/137/32
f 75/138/32 88/139/32 89/140/32
f 75/143/6 85/142/6 79/141/6
f 85/142/6 75/143/6 89/144/6
f 85/147/29 78/146/29 79/145/29
f 78/146/29 85/147/29 87/148/29
f 95/109/27 94/70/27 93/93/27
f 94/70/27 95/109/27 96/110/27
f 96/110/27 95/109/27 97/111/27
f 97/111/27 95/109/27 98/112/27
f 97/111/27 98/112/27 99/113/27
f 99/113/27 98/112/27 100/114/27
f 101/115/27 96/110/27 97/111/27
f 96/110/27 101/115/27 102/116/27
f 102/116/27 101/115/27 100/114/27
f 102/116/27 100/114/27 98/112/27
f 102/116/27 98/112/27 103/89/27
f 102/116/27 103/89/27 104/66/27
f 107/66/28 106/112/28 105/89/28
f 106/112/28 107/66/28 108/116/28
f 106/112/28 108/116/28 109/114/28
f 109/114/28 108/116/28 110/110/28
f 109/114/28 110/110/28 111/115/28
f 111/115/28 110/110/28 112/111/28
f 113/113/28 106/112/28 109/114/28
f 106/112/28 113/113/28 114/109/28
f 114/109/28 113/113/28 112/111/28
f 114/109/28 112/111/28 110/110/28
f 114/109/28 110/110/28 115/70/28
f 114/109/28 115/70/28 116/93/28
f 106/151/29 98/150/29 95/149/29
f 98/150/29 106/151/29 114/152/29
f 106/151/30 93/154/30 105/153/30
f 93/154/30 106/151/30 95/149/30
f 105/157/2 94/156/2 107/155/2
f 94/156/2 105/157/2 93/158/2
f 107/161/31 96/160/31 108/159/31
f 96/160/31 107/161/31 94/162/31
f 110/164/32 96/160/32 102/163/32
f 96/160/32 110/164/32 108/159/32
f 104/165/33 110/164/33 102/163/33
f 110/164/33 104/165/33 115/166/33
f 103/169/6 115/168/6 104/167/6
f 115/168/6 103/169/6 116/170/6
f 114/152/34 103/171/34 98/150/34
f 103/171/34 114/152/34 116/172/34
f 112/175/2 100/174/2 111/173/2
f 100/174/2 112/175/2 99/176/2
f 112/179/32 97/178/32 99/177/32
f 97/178/32 112/179/32 113/180/32
f 97/183/6 109/182/6 101/181/6
f 109/182/6 97/183/6 113/184/6
f 109/187/29 100/186/29 101/185/29
f 100/186/29 109/187/29 111/188/29
f 117/112/6 28/190/6 64/189/6
f 28/190/6 117/112/6 118/116/6
f 118/116/6 117/112/6 119/191/6
f 119/191/6 117/112/6 120/192/6
f 119/191/6 120/192/6 121/193/6
f 121/193/6 120/192/6 122/194/6
f 123/195/6 118/116/6 119/191/6
f 118/116/6 123/195/6 124/196/6
f 124/196/6 123/195/6 122/194/6
f 124/196/6 122/194/6 120/192/6
f 124/196/6 120/192/6 62/197/6
f 124/196/6 62/197/6 27/198/6
f 127/200/2 126/109/2 125/199/2
f 126/109/2 127/200/2 128/110/2
f 126/109/2 128/110/2 129/201/2
f 129/201/2 128/110/2 130/202/2
f 129/201/2 130/202/2 131/203/2
f 131/203/2 130/202/2 132/204/2
f 133/205/2 126/109/2 129/201/2
f 126/109/2 133/205/2 134/206/2
f 134/206/2 133/205/2 132/204/2
f 134/206/2 132/204/2 130/202/2
f 134/206/2 130/202/2 135/207/2
f 134/206/2 135/207/2 136/208/2
f 126/211/5 120/210/5 117/209/5
f 120/210/5 126/211/5 134/212/5
f 126/214/9 64/88/9 125/213/9
f 64/88/9 126/214/9 117/109/9
f 125/213/4 28/62/4 127/215/4
f 28/62/4 125/213/4 64/88/4
f 127/215/25 118/110/25 128/216/25
f 118/110/25 127/215/25 28/62/25
f 130/219/3 118/218/3 124/217/3
f 118/218/3 130/219/3 128/220/3
f 27/61/16 130/221/16 124/116/16
f 130/221/16 27/61/16 135/222/16
f 62/87/1 135/222/1 27/61/1
f 135/222/1 62/87/1 136/223/1
f 134/224/19 62/87/19 120/112/19
f 62/87/19 134/224/19 136/223/19
f 132/227/4 122/226/4 131/225/4
f 122/226/4 132/227/4 121/175/4
f 132/230/3 119/229/3 121/228/3
f 119/229/3 132/230/3 133/231/3
f 119/184/1 129/233/1 123/232/1
f 129/233/1 119/184/1 133/234/1
f 129/237/5 122/236/5 123/235/5
f 122/236/5 129/237/5 131/238/5
f 139/112/6 138/190/6 137/189/6
f 138/190/6 139/112/6 140/116/6
f 140/116/6 139/112/6 141/191/6
f 141/191/6 139/112/6 142/192/6
f 141/191/6 142/192/6 143/193/6
f 143/193/6 142/192/6 144/194/6
f 145/195/6 140/116/6 141/191/6
f 140/116/6 145/195/6 146/196/6
f 146/196/6 145/195/6 144/194/6
f 146/196/6 144/194/6 142/192/6
f 146/196/6 142/192/6 147/197/6
f 146/196/6 147/197/6 148/198/6
f 34/200/2 149/109/2 66/199/2
f 149/109/2 34/200/2 150/110/2
f 149/109/2 150/110/2 151/201/2
f 151/201/2 150/110/2 152/202/2
f 151/201/2 152/202/2 153/203/2
f 153/203/2 152/202/2 154/204/2
f 155/205/2 149/109/2 151/201/2
f 149/109/2 155/205/2 156/206/2
f 156/206/2 155/205/2 154/204/2
f 156/206/2 154/204/2 152/202/2
f 156/206/2 152/202/2 30/207/2
f 156/206/2 30/207/2 70/208/2
f 149/241/5 142/240/5 139/239/5
f 142/240/5 149/241/5 156/242/5
f 149/112/9 137/223/9 66/87/9
f 137/223/9 149/112/9 139/224/9
f 66/87/4 138/222/4 34/61/4
f 138/222/4 66/87/4 137/223/4
f 34/61/25 140/221/25 150/116/25
f 140/221/25 34/61/25 138/222/25
f 152/245/3 140/244/3 146/243/3
f 140/244/3 152/245/3 150/246/3
f 148/215/16 152/110/16 146/216/16
f 152/110/16 148/215/16 30/62/16
f 147/213/1 30/62/1 148/215/1
f 30/62/1 147/213/1 70/88/1
f 156/109/19 147/213/19 142/214/19
f 147/213/19 156/109/19 70/88/19
f 154/184/4 144/233/4 153/232/4
f 144/233/4 154/184/4 143/234/4
f 154/249/3 141/248/3 143/247/3
f 141/248/3 154/249/3 155/250/3
f 141/227/1 151/226/1 145/225/1
f 151/226/1 141/227/1 155/175/1
f 151/253/5 144/252/5 145/251/5
f 144/252/5 151/253/5 153/254/5

