# Created by Kenney (www.kenney.nl)

mtllib Untitled-1.mtl

g mergedBlocks

v 0 1.3 0.3344143
v -0.375 1.3 0.1415072
v -1.443823E-15 1.636 0.4630191
v -0.5 1.636 0.2058095
v 0.5 1.636 0.2058095
v 0.5 2.14 0.2058095
v -1.443823E-15 2.14 0.4630191
v 0.5 2.14 -0.3086095
v 0.5 1.636 -0.3086095
v 0.375 1.3 0.1415072
v 0.375 1.3 -0.2443072
v 0 1.3 -0.4372143
v -0.375 1.3 -0.2443072
v -0.5 1.636 -0.3086095
v -1.443823E-15 1.636 -0.5658191
v -0.5 2.14 -0.3086095
v -1.443823E-15 2.14 -0.5658191
v -0.5 2.14 0.2058095
v 0.25 2.98 -0.1800048
v 0.25 2.98 0.07720477
v 0 2.98 -0.3086095
v 0 2.98 0.2058095
v -0.25 2.98 -0.1800048
v -0.25 2.98 0.07720477
v 0.007 2.98 0.2555926
v -0.06213089 2.98 0.21445
v 0.007 3.2299 0.2555926
v -0.251 2.98 0.1020463
v -0.251 3.2299 0.1020463
v 0.265 3.2299 -0.2050463
v 0.265 3.2299 0.1020463
v 0.0715 4.2295 -0.08988658
v 0.0715 4.2295 -0.01311342
v 0.007 3.2299 -0.3585926
v 0.007 4.2295 -0.1282732
v -0.251 2.98 -0.2050463
v -0.251 3.2299 -0.2050463
v 0.265 2.98 0.1020463
v 0.07613089 2.98 0.21445
v 0.265 2.98 -0.2050463
v -0.0575 4.2295 -0.08988658
v -0.0575 4.2295 -0.01311342
v 0.007 2.98 -0.3585926
v 0.07613089 2.98 -0.31745
v 0.007 4.2295 0.02527315
v -0.06213089 2.98 -0.31745
v 0 0 0.418614
v -0.375 0 0.180457
v -1.443823E-15 0.336 0.5773853
v -0.5 0.336 0.2598426
v 0.5 0.336 0.2598426
v 0.5 0.84 0.2598426
v -1.443823E-15 0.84 0.5773853
v 0.5 0.84 -0.3752427
v 0.5 0.336 -0.3752427
v 0.375 0 0.180457
v 0.375 0 -0.295857
v 0 0 -0.534014
v -0.375 0 -0.295857
v -0.5 0.336 -0.3752427
v -1.443823E-15 0.336 -0.6927853
v -0.5 0.84 -0.3752427
v -1.443823E-15 0.84 -0.6927853
v -0.5 0.84 0.2598426
v 0.25 1.68 -0.2164713
v 0.25 1.68 0.1010713
v 0 1.68 -0.3752427
v 0 1.68 0.2598426
v -0.25 1.68 -0.2164713
v -0.25 1.68 0.1010713

vn -0.4330461 -0.3222069 0.8418158
vn 0.4574418 0 0.8892396
vn 1 0 0
vn 0 -1 0
vn 0.4330461 -0.3222069 0.8418158
vn -0.4574418 0 -0.8892396
vn -1 0 0
vn -0.4574418 0 0.8892396
vn 0.4574418 0 -0.8892396
vn 0.9372431 -0.3486767 0
vn -0.4330461 -0.3222069 -0.8418158
vn 0.4330461 -0.3222069 -0.8418158
vn -0.9372431 -0.3486767 0
vn 0 1 0
vn 0.4413726 0.2627218 0.8580021
vn 0.4413726 0.2627218 -0.8580021
vn -0.958452 0.2852536 0
vn -0.4413726 0.2627218 -0.8580021
vn -0.4413726 0.2627218 0.8580021
vn 0.958452 0.2852536 0
vn -0.5114221 0 0.8593297
vn 0.9817746 0.1900494 0
vn 0.5016827 0.1942289 -0.8429648
vn 0.5114221 0 0.8593297
vn -0.9817746 0.1900494 0
vn 0.5114221 0 -0.8593297
vn -0.5016827 0.1942289 0.8429648
vn 0.5016827 0.1942289 0.8429648
vn -0.5016827 0.1942289 -0.8429648
vn -0.5114221 0 -0.8593297
vn -0.4979536 -0.3705011 0.7840734
vn 0.5361072 0 0.8441499
vn 0.4979536 -0.3705011 0.7840734
vn -0.5361072 0 -0.8441499
vn -0.5361072 0 0.8441499
vn 0.5361072 0 -0.8441499
vn -0.4979536 -0.3705011 -0.7840734
vn 0.4979536 -0.3705011 -0.7840734
vn 0.510733 0.3040077 0.8041959
vn 0.510733 0.3040077 -0.8041959
vn -0.510733 0.3040077 -0.8041959
vn -0.510733 0.3040077 0.8041959

vt 0 1.3
vt -0.375 1.3
vt -1.443823E-15 1.636
vt -0.5 1.636
vt 0.5 1.636
vt 0.5 2.14
vt -1.443823E-15 2.14
vt 0.3086095 2.14
vt 0.3086095 1.636
vt -0.2058095 2.14
vt -0.2058095 1.636
vt -0.375 -0.1415072
vt -0.375 0.2443072
vt 0 -0.3344143
vt 0 0.4372143
vt 0.375 -0.1415072
vt 0.375 0.2443072
vt 0.375 1.3
vt 1.443823E-15 1.636
vt 1.443823E-15 2.14
vt -0.3086095 1.636
vt -0.3086095 2.14
vt 0.2058095 1.636
vt 0.2058095 2.14
vt -0.5 2.14
vt 0.2443072 1.3
vt -0.1415072 1.3
vt -0.2443072 1.3
vt 0.1415072 1.3
vt -0.25 -0.1800048
vt -0.25 0.07720477
vt 0 -0.3086095
vt 0 0.2058095
vt 0.25 -0.1800048
vt 0.25 0.07720477
vt 0.25 2.98
vt 0 2.98
vt -0.25 2.98
vt -0.1800048 2.98
vt 0.07720477 2.98
vt 0.1800048 2.98
vt -0.07720477 2.98
vt 0.007 2.98
vt -0.06213089 2.98
vt 0.007 3.2299
vt -0.251 2.98
vt -0.251 3.2299
vt 0.2050463 3.2299
vt -0.1020463 3.2299
vt 0.08988658 4.2295
vt 0.01311343 4.2295
vt -0.265 3.2299
vt -0.0715 4.2295
vt -0.007 3.2299
vt -0.007 4.2295
vt -0.2050463 2.98
vt -0.2050463 3.2299
vt 0.1020463 2.98
vt 0.1020463 3.2299
vt 0.265 2.98
vt 0.07613089 2.98
vt 0.265 3.2299
vt 0.2050463 2.98
vt -0.1020463 2.98
vt -0.08988658 4.2295
vt -0.01311343 4.2295
vt -0.007 2.98
vt -0.07613089 2.98
vt -0.265 2.98
vt 0.007 4.2295
vt -0.0575 4.2295
vt 0.0715 4.2295
vt 0.0575 4.2295
vt 0.251 3.2299
vt -0.0715 -0.08988658
vt -0.0715 -0.01311343
vt -0.007 -0.1282731
vt -0.007 0.02527315
vt 0.0575 -0.08988658
vt 0.0575 -0.01311343
vt 0.251 2.98
vt 0.06213089 2.98
vt -0.265 -0.1020463
vt -0.265 0.2050463
vt -0.07613089 -0.21445
vt -0.07613089 0.31745
vt -0.007 0.3585926
vt -0.007 -0.2555926
vt 0.06213089 -0.21445
vt 0.06213089 0.31745
vt 0.251 -0.1020463
vt 0.251 0.2050463
vt 0 0
vt -0.375 0
vt -1.443823E-15 0.336
vt -0.5 0.336
vt 0.5 0.336
vt 0.5 0.84
vt -1.443823E-15 0.84
vt 0.3752427 0.84
vt 0.3752427 0.336
vt -0.2598426 0.84
vt -0.2598426 0.336
vt -0.375 -0.180457
vt -0.375 0.295857
vt 0 -0.418614
vt 0 0.534014
vt 0.375 -0.180457
vt 0.375 0.295857
vt 0.375 0
vt 1.443823E-15 0.336
vt 1.443823E-15 0.84
vt -0.3752427 0.336
vt -0.3752427 0.84
vt 0.2598426 0.336
vt 0.2598426 0.84
vt -0.5 0.84
vt 0.295857 0
vt -0.180457 0
vt -0.295857 0
vt 0.180457 0
vt -0.25 -0.2164713
vt -0.25 0.1010713
vt 0 -0.3752427
vt 0 0.2598426
vt 0.25 -0.2164713
vt 0.25 0.1010713
vt 0.25 1.68
vt 0 1.68
vt -0.25 1.68
vt -0.2164713 1.68
vt 0.1010713 1.68
vt 0.2164713 1.68
vt -0.1010713 1.68

usemtl foliage(Clone)

f 3/3/1 2/2/1 1/1/1
f 2/2/1 3/3/1 4/4/1
f 6/6/2 3/3/2 5/5/2
f 3/3/2 6/6/2 7/7/2
f 6/10/3 9/9/3 8/8/3
f 9/9/3 6/10/3 5/11/3
f 1/14/4 11/13/4 10/12/4
f 11/13/4 1/14/4 12/15/4
f 12/15/4 1/14/4 2/16/4
f 12/15/4 2/16/4 13/17/4
f 5/5/5 1/1/5 10/18/5
f 1/1/5 5/5/5 3/3/5
f 16/6/6 15/19/6 14/5/6
f 15/19/6 16/6/6 17/20/6
f 4/23/7 16/22/7 14/21/7
f 16/22/7 4/23/7 18/24/7
f 7/7/8 4/4/8 3/3/8
f 4/4/8 7/7/8 18/25/8
f 17/20/9 9/4/9 15/19/9
f 9/4/9 17/20/9 8/25/9
f 5/11/10 11/26/10 9/9/10
f 11/26/10 5/11/10 10/27/10
f 14/5/11 12/1/11 13/18/11
f 12/1/11 14/5/11 15/19/11
f 15/19/12 11/2/12 12/1/12
f 11/2/12 15/19/12 9/4/12
f 13/28/13 4/23/13 14/21/13
f 4/23/13 13/28/13 2/29/13
f 21/32/14 20/31/14 19/30/14
f 20/31/14 21/32/14 22/33/14
f 22/33/14 21/32/14 23/34/14
f 22/33/14 23/34/14 24/35/14
f 20/36/15 7/7/15 6/6/15
f 7/7/15 20/36/15 22/37/15
f 21/37/16 8/25/16 17/20/16
f 8/25/16 21/37/16 19/38/16
f 18/24/17 23/39/17 16/22/17
f 23/39/17 18/24/17 24/40/17
f 23/36/18 17/20/18 16/6/18
f 17/20/18 23/36/18 21/37/18
f 22/37/19 18/25/19 7/7/19
f 18/25/19 22/37/19 24/38/19
f 19/41/20 6/10/20 8/8/20
f 6/10/20 19/41/20 20/42/20
f 27/45/21 26/44/21 25/43/21
f 26/44/21 27/45/21 28/46/21
f 28/46/21 27/45/21 29/47/21
f 32/50/22 31/49/22 30/48/22
f 31/49/22 32/50/22 33/51/22
f 34/54/23 32/53/23 30/52/23
f 32/53/23 34/54/23 35/55/23
f 28/58/7 37/57/7 36/56/7
f 37/57/7 28/58/7 29/59/7
f 31/62/24 39/61/24 38/60/24
f 39/61/24 31/62/24 25/43/24
f 25/43/24 31/62/24 27/45/24
f 31/49/3 40/63/3 30/48/3
f 40/63/3 31/49/3 38/64/3
f 29/59/25 41/65/25 37/57/25
f 41/65/25 29/59/25 42/66/25
f 34/54/26 44/68/26 43/67/26
f 44/68/26 34/54/26 40/69/26
f 40/69/26 34/54/26 30/52/26
f 42/71/27 27/45/27 45/70/27
f 27/45/27 42/71/27 29/47/27
f 33/72/28 27/45/28 31/62/28
f 27/45/28 33/72/28 45/70/28
f 34/54/29 41/73/29 35/55/29
f 41/73/29 34/54/29 37/74/29
f 35/77/14 33/76/14 32/75/14
f 33/76/14 35/77/14 45/78/14
f 45/78/14 35/77/14 41/79/14
f 45/78/14 41/79/14 42/80/14
f 37/74/30 46/82/30 36/81/30
f 46/82/30 37/74/30 43/67/30
f 43/67/30 37/74/30 34/54/30
f 39/85/4 40/84/4 38/83/4
f 40/84/4 39/85/4 44/86/4
f 44/86/4 39/85/4 43/87/4
f 43/87/4 39/85/4 25/88/4
f 43/87/4 25/88/4 26/89/4
f 43/87/4 26/89/4 46/90/4
f 46/90/4 26/89/4 28/91/4
f 46/90/4 28/91/4 36/92/4
f 49/95/31 48/94/31 47/93/31
f 48/94/31 49/95/31 50/96/31
f 52/98/32 49/95/32 51/97/32
f 49/95/32 52/98/32 53/99/32
f 52/102/3 55/101/3 54/100/3
f 55/101/3 52/102/3 51/103/3
f 47/106/4 57/105/4 56/104/4
f 57/105/4 47/106/4 58/107/4
f 58/107/4 47/106/4 48/108/4
f 58/107/4 48/108/4 59/109/4
f 51/97/33 47/93/33 56/110/33
f 47/93/33 51/97/33 49/95/33
f 62/98/34 61/111/34 60/97/34
f 61/111/34 62/98/34 63/112/34
f 50/115/7 62/114/7 60/113/7
f 62/114/7 50/115/7 64/116/7
f 53/99/35 50/96/35 49/95/35
f 50/96/35 53/99/35 64/117/35
f 63/112/36 55/96/36 61/111/36
f 55/96/36 63/112/36 54/117/36
f 51/103/10 57/118/10 55/101/10
f 57/118/10 51/103/10 56/119/10
f 60/97/37 58/93/37 59/110/37
f 58/93/37 60/97/37 61/111/37
f 61/111/38 57/94/38 58/93/38
f 57/94/38 61/111/38 55/96/38
f 59/120/13 50/115/13 60/113/13
f 50/115/13 59/120/13 48/121/13
f 67/124/14 66/123/14 65/122/14
f 66/123/14 67/124/14 68/125/14
f 68/125/14 67/124/14 69/126/14
f 68/125/14 69/126/14 70/127/14
f 66/128/39 53/99/39 52/98/39
f 53/99/39 66/128/39 68/129/39
f 67/129/40 54/117/40 63/112/40
f 54/117/40 67/129/40 65/130/40
f 64/116/17 69/131/17 62/114/17
f 69/131/17 64/116/17 70/132/17
f 69/128/41 63/112/41 62/98/41
f 63/112/41 69/128/41 67/129/41
f 68/129/42 64/117/42 53/99/42
f 64/117/42 68/129/42 70/130/42
f 65/133/20 52/102/20 54/100/20
f 52/102/20 65/133/20 66/134/20

